<svg xmlns="http://www.w3.org/2000/svg" xmlns:xlink="http://www.w3.org/1999/xlink" version="1.0" width="500px" height="100%" viewBox="0 0 340.000000 250.000000" preserveAspectRatio="xMidYMid meet" color-interpolation-filters="sRGB" style="margin: auto;" id="test">  <g data-v-2cb57da0="" fill="#080e29" class="icon-text-wrapper icon-svg-group iconsvg" transform="translate(79.43000793457031,70.2812728881836)"><g class="iconsvg-imagesvg" transform="translate(60.56999206542969,0)"><g><rect fill="#080e29" fill-opacity="0" stroke-width="2" x="0" y="0" width="60.00000000000001" height="52.75745638716939" class="image-rect"/> <svg x="0" y="0" width="60.00000000000001" height="52.75745638716939" filtersec="colorsb859914571" class="image-svg-svg primary" style="overflow: visible;"><svg xmlns="http://www.w3.org/2000/svg" viewBox="0.5259506106376648 0.002596714301034808 98.94544982910156 87.00210571289062"><g transform="matrix(.69 0 0 .69 15.5 15.5)"><g fill="#080e29"><path d="M10.18 70.12l4.94-9.89c.38-.77.34-1.68-.11-2.41a2.47 2.47 0 0 0-2.1-1.17H2.23l28.01-51.7 25.01 45.48c.44.79 1.27 1.28 2.17 1.28h11.26c.88 0 1.69-.46 2.13-1.22.45-.76.46-1.69.03-2.45L32.38-21.19c-.87-1.57-3.45-1.57-4.32 0l-49.45 89c-.43.77-.41 1.7.03 2.46.44.75 1.25 1.22 2.13 1.22h27.2c.94-.01 1.79-.53 2.21-1.37"/><path d="M121.39 67.81l-49.45-89c-.45-.8-1.38-1.25-2.22-1.27-.92.02-1.75.55-2.16 1.37L55.2 3.63c-.35.69-.35 1.51 0 2.21l4.94 9.89c.84 1.68 3.59 1.68 4.43 0l5.29-10.59 27.9 51.51h-52.7c-1.36 0-2.47 1.11-2.47 2.47v9.89c0 1.36 1.11 2.47 2.47 2.47h74.17c.88 0 1.69-.46 2.13-1.22.44-.75.45-1.68.03-2.45"/><path d="M89.25 77.7a2.48 2.48 0 0 0-2.16-1.27H74.72c-.89 0-1.71.48-2.15 1.25-.44.78-.43 1.73.03 2.49l5.17 8.62H22.15L47.2 45.53c.42-.72.45-1.6.07-2.34l-4.94-9.89a2.477 2.477 0 0 0-2.14-1.37c-.92-.04-1.77.45-2.22 1.25L18.23 67.72-1.55 99.86a2.46 2.46 0 0 0-.05 2.5 2.48 2.48 0 0 0 2.16 1.27h98.89c.88 0 1.69-.46 2.13-1.22.44-.75.45-1.69.03-2.46L89.25 77.7z"/></g></g></svg></svg> <!----></g></g> <g transform="translate(0,59.7574577331543)"><g data-gra="path-name" fill-rule="" class="tp-name iconsvg-namesvg"><g transform="scale(1)"><g><path d="M43.98 5.52L43.98 5.52 4.14 5.52Q3.12 5.52 2.46 4.83 1.8 4.14 1.8 3.18L1.8 3.18 1.8-40.62Q1.8-41.64 2.46-42.3 3.12-42.96 4.14-42.96L4.14-42.96 43.98-42.96 43.98-38.22 6.48-38.22 6.48 0.78 43.98 0.78 43.98 5.52ZM77.04 5.04L77.04 5.04 51.12 5.04Q50.1 5.04 49.44 4.38 48.78 3.72 48.78 2.7L48.78 2.7 48.78-14.16Q48.78-15.18 49.44-15.84 50.1-16.5 51.12-16.5L51.12-16.5 74.7-16.5 74.7-25.56 48.9-25.56 48.9-30.24 77.04-30.24Q78.06-30.24 78.72-29.58 79.38-28.92 79.38-27.9L79.38-27.9 79.38 2.7Q79.38 3.72 78.72 4.38 78.06 5.04 77.04 5.04L77.04 5.04 77.04 5.04ZM53.46-11.76L53.46 0.3 74.7 0.3 74.7-11.76 53.46-11.76ZM94.26-36.36L94.26-36.36Q94.26-35.1 93.39-34.23 92.52-33.36 91.32-33.36L91.32-33.36Q90.12-33.36 89.25-34.23 88.38-35.1 88.38-36.36L88.38-36.36Q88.38-37.56 89.25-38.43 90.12-39.3 91.32-39.3L91.32-39.3Q92.52-39.3 93.39-38.43 94.26-37.56 94.26-36.36L94.26-36.36 94.26-36.36ZM93.66-30.24L93.66 5.16 88.98 5.16 88.98-30.24 93.66-30.24ZM133.56 5.22L133.56 5.22 128.82 5.22 128.82-25.5 108-25.5 108 5.22 103.26 5.22 103.26-27.84Q103.26-28.86 103.95-29.55 104.64-30.24 105.66-30.24L105.66-30.24 131.22-30.24Q132.18-30.24 132.87-29.55 133.56-28.86 133.56-27.84L133.56-27.84 133.56 5.22Z" transform="translate(-1.7999999523162842, 42.959999084472656)"/></g> <!----> <!----> <!----> <!----> <!----> <!----> <g data-gra="path-name-1" fill="#080e29" transform="translate(134.75999450683594,0)"><g transform="scale(1)"><path d="M19.92 6.72L19.92 6.72Q16.86 6.72 14.13 5.73 11.4 4.74 9.36 3.03 7.32 1.32 6.15-0.99 4.98-3.3 4.98-5.94L4.98-5.94 4.98-29.7 3.42-29.7 3.42-34.44 9.72-34.44 9.72-5.94Q9.72-4.32 10.53-2.85 11.34-1.38 12.72-0.3 14.1 0.78 15.96 1.41 17.82 2.04 19.92 2.04L19.92 2.04Q22.02 2.04 23.88 1.41 25.74 0.78 27.12-0.3 28.5-1.38 29.31-2.85 30.12-4.32 30.12-5.94L30.12-5.94 30.12-34.5 34.8-34.5 34.8-5.94Q34.8-3.3 33.63-0.99 32.46 1.32 30.45 3.03 28.44 4.74 25.71 5.73 22.98 6.72 19.92 6.72ZM49.8 6.72L49.8 6.72 45.06 6.72 45.06-34.26 49.8-34.26 49.8 6.72Z" transform="translate(-3.4200000762939453, 42.959999084472656)"/></g></g></g></g> <!----></g></g><defs v-gra="od"/></svg>