<svg xmlns="http://www.w3.org/2000/svg" x="0" y="0" width="99" height="90"><g transform="matrix(.69 0 0 .69 15.5 15.5)">
                            <g fill="#080e29">
                                <path d="M10.18 70.12l4.94-9.89c.38-.77.34-1.68-.11-2.41a2.47 2.47 0 0 0-2.1-1.17H2.23l28.01-51.7 25.01 45.48c.44.79 1.27 1.28 2.17 1.28h11.26c.88 0 1.69-.46 2.13-1.22.45-.76.46-1.69.03-2.45L32.38-21.19c-.87-1.57-3.45-1.57-4.32 0l-49.45 89c-.43.77-.41 1.7.03 2.46.44.75 1.25 1.22 2.13 1.22h27.2c.94-.01 1.79-.53 2.21-1.37">
                                </path>
                                <path d="M121.39 67.81l-49.45-89c-.45-.8-1.38-1.25-2.22-1.27-.92.02-1.75.55-2.16 1.37L55.2 3.63c-.35.69-.35 1.51 0 2.21l4.94 9.89c.84 1.68 3.59 1.68 4.43 0l5.29-10.59 27.9 51.51h-52.7c-1.36 0-2.47 1.11-2.47 2.47v9.89c0 1.36 1.11 2.47 2.47 2.47h74.17c.88 0 1.69-.46 2.13-1.22.44-.75.45-1.68.03-2.45">
                                </path>
                                <path d="M89.25 77.7a2.48 2.48 0 0 0-2.16-1.27H74.72c-.89 0-1.71.48-2.15 1.25-.44.78-.43 1.73.03 2.49l5.17 8.62H22.15L47.2 45.53c.42-.72.45-1.6.07-2.34l-4.94-9.89a2.477 2.477 0 0 0-2.14-1.37c-.92-.04-1.77.45-2.22 1.25L18.23 67.72-1.55 99.86a2.46 2.46 0 0 0-.05 2.5 2.48 2.48 0 0 0 2.16 1.27h98.89c.88 0 1.69-.46 2.13-1.22.44-.75.45-1.69.03-2.46L89.25 77.7z">
                                </path>
                            </g>
                        </g></svg>